<?xml version="1.0" encoding="UTF-8"?>
<svg xmlns="http://www.w3.org/2000/svg" xmlns:xlink="http://www.w3.org/1999/xlink" width="314px" height="89px" viewBox="0 0 314 89">
  <!-- Generator: Sketch 55.2 (78181) - https://sketchapp.com -->
  <title>craft-commerce-logo</title>
  <desc>Created with Sketch.</desc>
  <g id="craft-commerce-logo" stroke="none" stroke-width="1" fill="none" fill-rule="evenodd">
    <g id="craft-commerce-logo-knockout-copy" fill="#FFFFFF" fill-rule="nonzero">
      <path d="M80.5910584,9.19956522 L80.5683942,9.19956522 L75.4620438,13.1752174 L75.0787226,15.1786957 L69.7890876,15.1786957 L71.3351825,7.12173913 C71.699781,4.08228261 76.3627007,5.00184783 77.0564234,5.17402174 L77.8013869,1.29130435 C69.4166058,-1.9076087 66.9678832,7.12173913 66.9678832,7.12173913 L65.4227737,15.1786957 L65.3951825,15.1786957 L60.1439781,19.2668478 L64.6383942,19.2668478 L59.7005474,45 L64.0668613,45 L69.0037226,19.2668478 L74.2923723,19.2668478 L72.3590146,29.34 C71.130219,36.6730435 78.5295985,35.8708696 80.8906204,35.3983696 L81.6296715,31.5577174 C75.9813504,32.823587 76.7253285,29.3390217 76.7253285,29.3390217 L78.6586861,19.2658696 L85.3919343,19.2658696 L86.1763139,15.1777174 L79.4430657,15.1777174 L80.5910584,9.19956522 L80.5910584,9.19956522 Z" id="Shape"></path>
      <path d="M45.9729197,15.2765217 L45.1845985,19.6121739 C55.8535401,14.9967391 54.0561679,23.0390217 54.0561679,23.0390217 L53.8383942,24.2471739 C53.8383942,24.2471739 47.5830657,21.06 43.2039416,24.6091304 C43.2039416,24.6091304 40.6389416,26.3073913 40.6389416,29.7029348 C40.6389416,33.0984783 43.7744891,34.9229348 43.7744891,34.9229348 C43.7744891,34.9229348 48.489635,37.3930435 52.1819343,33.4457609 L51.7739781,35.2829348 L55.9028102,35.2829348 L58.4973723,23.0615217 C60.4464964,11.0025 45.9729197,15.2765217 45.9729197,15.2765217 L45.9729197,15.2765217 Z M52.8332847,29.8291304 C48.2895985,34.4563043 45.3806934,31.4266304 45.3806934,31.4266304 C43.4108759,29.523913 45.5876277,27.5673913 45.5876277,27.5673913 C48.5931022,24.8409783 53.1919708,27.836413 53.1919708,27.836413 L52.8332847,29.8291304 L52.8332847,29.8291304 Z" id="Shape"></path>
      <path d="M42.2756934,15.191413 C38.9085766,15.2266304 35.8489051,17.0921739 35.8489051,17.0921739 L36.2401095,15.2618478 L32.1979927,15.2618478 L28.5106204,35.321087 L32.640438,35.321087 L35.1404015,22.1243478 C36.9880292,18.3971739 41.5563504,19.5554348 41.5563504,19.5554348 L42.2756934,15.191413 L42.2756934,15.191413 Z" id="Shape"></path>
      <path d="M26.5181387,6.59445652 C26.7270438,6.75195652 26.9251095,6.91728261 27.1192336,7.08652174 L30.2537956,4.64478261 L30.3513504,4.51858696 C29.8714599,4.03728261 29.3560949,3.5823913 28.7973723,3.16369565 C21.6059124,-2.22554348 10.7369343,0.030326087 4.5229927,8.20369565 C-1.6899635,16.376087 -0.896715328,27.3688043 6.29671533,32.76 C12.169708,37.1602174 20.4914234,36.4627174 26.73,31.6095652 L26.725073,31.5978261 L23.7412774,29.2744565 C19.1187591,32.2258696 13.3827372,32.4371739 9.23321168,29.3292391 C3.70806569,25.1902174 3.09810219,16.7448913 7.87040146,10.466413 C12.6446715,4.18793478 20.9929927,2.45445652 26.5181387,6.59445652 L26.5181387,6.59445652 Z" id="Shape"></path>
      <path d="M94.1610219,19.1836957 C94.905,18.4206522 95.7977737,17.816087 96.8393431,17.366087 C97.8809124,16.9180435 99.0318613,16.695 100.29219,16.7008696 C101.393869,16.7057609 102.394051,16.8740217 103.289781,17.2066304 C104.186496,17.5392391 105.026058,17.9579348 105.812409,18.4607609 L106.620438,17.2917391 C105.74146,16.7253261 104.773796,16.2596739 103.721387,15.8947826 C102.667007,15.5308696 101.526898,15.345 100.298102,15.3400116 C98.8485766,15.3342391 97.5074453,15.5944565 96.2766788,16.1207609 C95.0459124,16.6470652 93.979708,17.3690217 93.0780657,18.2876087 C92.1764234,19.2061957 91.4777737,20.2822826 90.9840876,21.5148913 C90.4904015,22.7484783 90.2410949,24.0681522 90.2340932,25.4768478 C90.2282847,26.883587 90.474635,28.1973913 90.9732482,29.4192391 C91.4708759,30.641087 92.1596715,31.7073913 93.0386496,32.6191304 C93.9156569,33.5308696 94.9680657,34.2459783 96.1948905,34.766413 C97.4207299,35.2888043 98.7589051,35.5529348 100.208431,35.5598468 C101.437226,35.5636957 102.579307,35.388587 103.636642,35.0344565 C104.692993,34.6813043 105.664599,34.2225 106.549489,33.663913 L105.751314,32.4880435 C104.961022,32.985 104.116533,33.3958696 103.216861,33.7196739 C102.318175,34.0444565 101.317007,34.203913 100.215328,34.2 C98.955,34.1941304 97.8060219,33.9632609 96.7683942,33.5044565 C95.7307664,33.0456522 94.8439051,32.4166304 94.1068248,31.616413 C93.3697445,30.8142391 92.7982117,29.8741304 92.3951825,28.7921739 C91.9901825,27.7121739 91.790146,26.5627174 91.7960584,25.3428261 C91.8019708,24.1229348 92.0118613,22.9822826 92.4257299,21.9208696 C92.8386131,20.8594565 93.4170438,19.9467391 94.1610219,19.1836957 L94.1610219,19.1836957 Z" id="Shape"></path>
      <path d="M125.706679,18.3365217 C124.860219,17.441413 123.855109,16.7341304 122.692336,16.2127174 C121.528577,15.6913043 120.254453,15.4281522 118.868978,15.4212043 C117.482518,15.4154348 116.203467,15.6678261 115.036752,16.1784783 C113.868066,16.6891304 112.857044,17.4042391 112.002701,18.3228261 C111.148358,19.241413 110.473358,20.3184783 109.980657,21.551087 C109.485,22.7846739 109.236679,24.1033696 109.230655,25.511087 C109.224854,26.9188043 109.454453,28.241413 109.921533,29.478913 C110.387628,30.7173913 111.037007,31.7895652 111.868686,32.7003261 C112.698394,33.6120652 113.69562,34.3261957 114.860365,34.8476087 C116.022153,35.3690217 117.297263,35.6331522 118.683723,35.639153 C120.070182,35.6458696 121.355146,35.3846739 122.538613,34.8583696 C123.723066,34.3320652 124.740985,33.6169565 125.596314,32.7140217 C126.449672,31.811087 127.124672,30.7359783 127.618358,29.4867391 C128.112044,28.2375 128.362336,26.9090217 128.368359,25.5022826 C128.374161,24.0955435 128.144562,22.7729348 127.677482,21.5344565 C127.210401,20.298913 126.554124,19.2316304 125.706679,18.3365217 L125.706679,18.3365217 Z M126.203321,28.9643478 C125.804234,30.0257609 125.249453,30.9531522 124.537007,31.7484783 C123.824562,32.5428261 122.978102,33.165 121.999599,33.6130435 C121.021095,34.0630435 119.933212,34.2851087 118.735949,34.2793525 C117.538686,34.2733696 116.444891,34.0434783 115.454562,33.5856522 C114.464234,33.1268478 113.624672,32.5056522 112.934891,31.721087 C112.244124,30.9365217 111.713978,30.0032609 111.340511,28.9222826 C110.968029,27.8422826 110.783759,26.6928261 110.78859,25.473913 C110.793613,24.2540217 110.989708,23.1133696 111.371058,22.0509783 C111.753394,20.9905435 112.301277,20.07 113.013723,19.2903261 C113.725182,18.5126087 114.571642,17.8982609 115.550146,17.4492391 C116.52865,17.0002174 117.615547,16.7771739 118.813796,16.7829306 C120.011058,16.7879348 121.104854,17.0197826 122.095182,17.4776087 C123.084526,17.9354348 123.932956,18.5576087 124.638504,19.3411957 C125.344051,20.1267391 125.883066,21.0521739 126.256533,22.1165217 C126.629015,23.1818478 126.813285,24.3234783 126.808454,25.5433696 C126.803431,26.7613043 126.601423,27.9029348 126.203321,28.9643478 L126.203321,28.9643478 Z" id="Shape"></path>
      <path d="M159.899124,17.1733696 C159.34927,16.6245652 158.721569,16.2225 158.015036,15.9691304 C157.306533,15.7157609 156.559599,15.5876087 155.773248,15.5836957 C154.135511,15.5768478 152.605182,16.0082609 151.183248,16.8769565 C149.763285,17.7476087 148.575876,18.7738043 147.624964,19.9575 C147.285985,18.4548913 146.612956,17.3426087 145.607847,16.6177174 C144.602737,15.8938043 143.440949,15.5298913 142.11854,15.5239239 C141.297701,15.5201087 140.510365,15.633587 139.753577,15.8654348 C138.996788,16.0972826 138.294197,16.398587 137.645803,16.7713043 C136.99938,17.1440217 136.391387,17.5715217 135.820839,18.0538043 C135.251277,18.5370652 134.745766,19.0271739 134.302336,19.5241304 L134.319088,15.8654348 L132.854781,15.858587 L132.768066,35.3269565 L134.279672,35.3328261 L134.341752,21.1196739 C135.41781,19.9369565 136.580584,18.941087 137.829088,18.1330435 C139.07562,17.325 140.424635,16.9248913 141.873175,16.9307609 C144.960438,16.9444565 146.495693,18.7336957 146.480912,22.2984783 L146.422774,35.3856522 L147.933394,35.3934783 L147.995474,21.4141304 C149.008467,20.073913 150.163358,18.9997826 151.459161,18.1917391 C152.753978,17.3846739 154.109891,16.983587 155.527883,16.9894565 C158.615146,17.0031522 160.150401,18.7923913 160.136606,22.3581522 L160.077482,35.4463043 L161.589088,35.4521739 L161.648376,22.2241304 C161.654124,21.0678261 161.500401,20.073913 161.188029,19.2433696 C160.877628,18.4138043 160.447007,17.7241304 159.899124,17.1733696 L159.899124,17.1733696 Z" id="Shape"></path>
      <path d="M194.156606,17.3240217 C193.605766,16.7742391 192.979051,16.3731522 192.272518,16.1197826 C191.564015,15.866413 190.81708,15.7372826 190.03073,15.7343478 C188.392007,15.7275 186.861679,16.158913 185.44073,17.0276087 C184.019781,17.8982609 182.833358,18.9244565 181.882445,20.1081522 C181.543467,18.6045652 180.870438,17.4932609 179.865328,16.7683696 C178.860219,16.0444565 177.697445,15.6795652 176.375036,15.6735978 C175.554197,15.6697826 174.766861,15.7832609 174.011058,16.0151087 C173.253285,16.2459783 172.550693,16.5482609 171.903285,16.9209783 C171.254891,17.2927174 170.646898,17.7211957 170.078321,18.2034783 C169.508759,18.6867391 169.002263,19.1758696 168.558832,19.6747826 L168.575584,16.0151087 L167.111277,16.0092391 L167.024562,35.4776087 L168.535182,35.4834783 L168.598248,21.2693478 C169.675292,20.0866304 170.836095,19.0897826 172.085584,18.2827174 C173.333102,17.4756522 174.681131,17.073587 176.129672,17.0804348 C179.216934,17.0941304 180.753175,18.8833696 180.738394,22.4481522 L180.680255,35.5363043 L182.190876,35.5421739 L182.251971,21.5638043 C183.265949,20.2226087 184.420839,19.1504348 185.716642,18.3423913 C187.01146,17.5343478 188.368358,17.1332609 189.785365,17.1401087 C192.872628,17.1528261 194.407883,18.9430435 194.393102,22.5078261 L194.334964,35.5959783 L195.846569,35.6028261 L195.90493,22.3738043 C195.911606,21.2175 195.757883,20.2226087 195.445511,19.3930435 C195.135109,18.5644565 194.705474,17.8738043 194.156606,17.3240217 L194.156606,17.3240217 Z" id="Shape"></path>
      <path d="M215.557555,18.566413 C214.852007,17.7182609 213.979927,17.051087 212.943285,16.5619565 C211.906642,16.0728261 210.695584,15.8253261 209.309124,15.8183426 C207.922664,15.8116304 206.669234,16.0640217 205.549818,16.5756522 C204.427445,17.0863043 203.464708,17.8023913 202.657664,18.7209783 C201.849635,19.6405435 201.230803,20.7166304 200.799197,21.9502174 C200.367591,23.1838043 200.150803,24.5044565 200.144891,25.9102174 C200.137007,27.3179348 200.351825,28.6405435 200.787372,29.8780435 C201.22292,31.1155435 201.863431,32.1886957 202.710876,33.0994565 C203.55635,34.0121739 204.62354,34.7263043 205.914416,35.2477174 C207.203321,35.7691304 208.698175,36.0352174 210.399964,36.0422181 C211.407044,36.0469565 212.46438,35.9344565 213.567044,35.7045652 C214.669708,35.4736957 215.664964,35.1430435 216.548869,34.7086957 L216.363613,34.0503261 C216.300547,33.8625 216.222701,33.6443478 216.129088,33.3929348 C215.277701,33.7959783 214.362263,34.1119565 213.38573,34.3418478 C212.407226,34.5727174 211.414927,34.6861957 210.407847,34.6813043 C208.957336,34.6744565 207.691095,34.451413 206.606168,34.0082609 C205.521241,33.566087 204.617628,32.9517391 203.897299,32.1652174 C203.175985,31.3806522 202.629088,30.4473913 202.256606,29.3683696 C201.883139,28.2873913 201.699854,27.1213043 201.704781,25.871087 L217.676168,25.9405435 L217.679268,25.331087 C217.685036,23.9869565 217.50865,22.7347826 217.151934,21.5755435 C216.793248,20.4182609 216.262117,19.4145652 215.557555,18.566413 L215.557555,18.566413 Z M201.755036,24.5582609 C201.855547,23.4958696 202.095985,22.5117391 202.477336,21.6058696 C202.859672,20.7009783 203.366168,19.9203261 204.000766,19.2668478 C204.632409,18.6133696 205.391168,18.1007609 206.276058,17.7290217 C207.158978,17.3572826 208.137482,17.1743478 209.208613,17.1792391 C210.34281,17.1841304 211.334124,17.3846739 212.18354,17.7779348 C213.031971,18.1731522 213.738504,18.6994565 214.302153,19.3597826 C214.865803,20.0191304 215.303321,20.8027174 215.614708,21.7115217 C215.924124,22.6203261 216.093613,23.5897826 216.121204,24.6218478 L201.755036,24.5582609 L201.755036,24.5582609 Z" id="Shape"></path>
      <path d="M223.605328,20.3380435 L223.624051,16.2567391 L222.16073,16.2508696 L222.074015,35.7182609 L223.584635,35.7251087 L223.644745,22.3552174 C224.470511,20.7019565 225.54854,19.4625 226.874891,18.6407609 C228.201241,17.8180435 229.541387,17.3621739 230.896314,17.2741304 L230.903212,15.7733982 C229.422153,15.7666304 228.049489,16.1990217 226.78719,17.0686957 C225.521934,17.9383696 224.461642,19.0291304 223.605328,20.3380435 L223.605328,20.3380435 Z" id="Shape"></path>
      <path d="M236.811679,19.8097826 C237.556642,19.0467391 238.449416,18.4411957 239.490985,17.9921739 C240.532555,17.5441304 241.683504,17.321087 242.943832,17.3269565 C244.045511,17.3308696 245.045693,17.5001087 245.941423,17.8327174 C246.838139,18.1643478 247.678686,18.5830435 248.464051,19.0858696 L249.27208,17.9168478 C248.393102,17.351413 247.426423,16.8857609 246.374015,16.5208696 C245.319635,16.1569565 244.179526,15.971087 242.949745,15.9660982 C241.500219,15.9603261 240.160073,16.2195652 238.929307,16.7468478 C237.69854,17.2731522 236.633321,17.9951087 235.730693,18.9136957 C234.830036,19.8322826 234.131387,20.9083696 233.637701,22.1409783 C233.144015,23.3755435 232.893723,24.6942391 232.887669,26.1019565 C232.880912,27.5086957 233.127263,28.8244565 233.626861,30.0463043 C234.123504,31.2671739 234.812299,32.3344565 235.691277,33.2452174 C236.568285,34.1569565 237.619708,34.8720652 238.846533,35.3934783 C240.072372,35.9148913 241.410547,36.1790217 242.859088,36.1850333 C244.088869,36.1907609 245.229964,36.0146739 246.287299,35.6615217 C247.342664,35.3073913 248.315255,34.848587 249.200146,34.29 L248.400985,33.1131522 C247.609708,33.611087 246.76719,34.0219565 245.866533,34.3457609 C244.968832,34.6705435 243.966679,34.83 242.865,34.8251087 C241.605657,34.8192391 240.456679,34.5893478 239.418066,34.1295652 C238.379453,33.6727174 237.494562,33.0427174 236.757482,32.2415217 C236.020401,31.4403261 235.449854,30.5011957 235.046825,29.4192391 C234.640839,28.3392391 234.442774,27.1888043 234.447701,25.968913 C234.452628,24.75 234.663504,23.6093478 235.077372,22.5469565 C235.490255,21.4845652 236.068686,20.5728261 236.811679,19.8097826 L236.811679,19.8097826 Z" id="Shape"></path>
      <path d="M269.369343,25.5590217 C269.376241,24.213913 269.198869,22.9627174 268.843139,21.8034783 C268.485438,20.6452174 267.954307,19.6425 267.249745,18.7943478 C266.544197,17.9471739 265.672117,17.2790217 264.63646,16.788913 C263.598832,16.2997826 262.387774,16.0522826 261.001314,16.045365 C259.615839,16.0405435 258.361423,16.2929348 257.242993,16.803587 C256.12062,17.3152174 255.156898,18.0303261 254.349854,18.948913 C253.541825,19.8675 252.923978,20.9445652 252.492372,22.1771739 C252.060766,23.4117391 251.842993,24.7304348 251.835976,26.1381522 C251.830182,27.5448913 252.044015,28.8684783 252.478577,30.105 C252.915109,31.3434783 253.556606,32.4166304 254.403066,33.326413 C255.247555,34.2401087 256.31573,34.9542391 257.60562,35.4756522 C258.895511,35.9970652 260.390365,36.2621739 262.092153,36.2701528 C263.100219,36.2748913 264.155584,36.1623913 265.260219,35.9315217 C266.362883,35.7016304 267.358139,35.3709783 268.241058,34.9346739 L268.055803,34.2772826 C267.992737,34.0904348 267.914891,33.8703261 267.822263,33.6198913 C266.969891,34.0229348 266.055438,34.3398913 265.07792,34.5707609 C264.099416,34.8006522 263.107117,34.9141304 262.100036,34.9082609 C260.649526,34.9023913 259.383285,34.6793478 258.298358,34.2352174 C257.212445,33.7930435 256.309818,33.1786957 255.589489,32.3931522 C254.868175,31.608587 254.322263,30.6753261 253.948796,29.5953261 C253.575328,28.5153261 253.392044,27.3492391 253.396971,26.0980435 L269.368358,26.1684783 L269.369343,25.5590217 L269.369343,25.5590217 Z M253.447226,24.7852174 C253.546752,23.7228261 253.789161,22.7386957 254.169526,21.8318478 C254.552847,20.9269565 255.058358,20.1463043 255.691971,19.4928261 C256.325584,18.8393478 257.083358,18.3267391 257.967263,17.955 C258.851168,17.5832609 259.828686,17.4013043 260.900803,17.4051556 C262.034015,17.4101087 263.025328,17.6106522 263.874745,18.0048913 C264.723175,18.4001087 265.429708,18.926413 265.993358,19.5867391 C266.558978,20.246087 266.996496,21.0296739 267.306898,21.9375 C267.615328,22.8463043 267.786788,23.8157609 267.813394,24.8488043 L253.447226,24.7852174 L253.447226,24.7852174 Z" id="Shape"></path>
    </g>
  </g>
</svg>
