<?xml version="1.0" encoding="UTF-8"?>
<svg xmlns="http://www.w3.org/2000/svg" xmlns:xlink="http://www.w3.org/1999/xlink" width="314px" height="89px" viewBox="0 0 314 89">
  <!-- Generator: Sketch 55.2 (78181) - https://sketchapp.com -->
  <title>craft-cms-logo</title>
  <desc>Created with Sketch.</desc>
  <g id="craft-cms-logo" stroke="none" stroke-width="1" fill="none" fill-rule="evenodd">
    <g id="craft-cms-logo-knockout-copy" fill="#FFFFFF" fill-rule="nonzero">
      <path d="M101.827601,11.6146292 L101.797391,11.6146292 L95.2402531,16.7195528 L94.7480441,19.2917614 L87.9558546,19.2917614 L89.9409011,8.94661182 C90.4087944,5.04405133 96.3963548,6.22520485 97.2886678,6.44680827 L98.2450859,1.46182845 C87.4776456,-2.64624544 84.3342869,8.94661182 84.3342869,8.94661182 L82.3499772,19.2917614 L82.3153458,19.2917614 L75.5717877,24.5407638 L81.343454,24.5407638 L75,57.5808824 L80.6073511,57.5808824 L86.9471209,24.5407638 L93.7393104,24.5407638 L91.256897,37.474212 C89.6785861,46.8905288 99.1801357,45.859305 102.212968,45.2544666 L103.161281,40.3228764 C95.9070932,41.9486995 96.8635113,37.474212 96.8635113,37.474212 L99.3466615,24.5407638 L107.99274,24.5407638 L109,19.2917614 L100.353922,19.2917614 L101.827601,11.6146292 L101.827601,11.6146292 Z" id="Shape"></path>
      <path d="M57.8009505,19.5198728 L56.7951091,25.0556573 C70.3977416,19.1612942 68.1058864,29.4306071 68.1058864,29.4306071 L67.8279084,30.9747499 C67.8279084,30.9747499 59.8528668,26.9045555 54.2698987,31.4366107 C54.2698987,31.4366107 51,33.6040838 51,37.9397573 C51,42.2761582 54.9970306,44.6065554 54.9970306,44.6065554 C54.9970306,44.6065554 61.0086699,47.7603015 65.7160074,42.7198356 L65.1966275,45.0655069 L70.4613839,45.0655069 L73.7700532,29.4604281 C76.2535669,14.0626411 57.8009505,19.5198728 57.8009505,19.5198728 L57.8009505,19.5198728 Z M66.5470152,38.1019541 C60.7548321,44.0115913 57.0452893,40.1414154 57.0452893,40.1414154 C54.5339778,37.7106452 57.3093684,35.2144145 57.3093684,35.2144145 C61.1410752,31.7326381 67.0042158,35.5584463 67.0042158,35.5584463 L66.5470152,38.1019541 L66.5470152,38.1019541 Z" id="Shape"></path>
      <path d="M53,19.5808824 C48.5965987,19.6264977 44.5953483,22.0352812 44.5953483,22.0352812 L45.1070401,19.672113 L39.8220583,19.672113 L35,45.5808824 L40.4005252,45.5808824 L43.6695011,28.5354651 C46.0861573,23.720841 52.0591472,25.217318 52.0591472,25.217318 L53,19.5808824 L53,19.5808824 Z" id="Shape"></path>
      <path d="M33.1474008,8.83411744 C33.4118239,9.03734696 33.6624446,9.25240074 33.9087068,9.47188863 L37.8765057,6.30446417 L38,6.14040252 C37.3926987,5.51593363 36.7403582,4.92545949 36.0328086,4.38228241 C26.9276471,-2.61029114 13.1667509,0.316952979 5.30016459,10.9218389 C-2.56569531,21.5245077 -1.56103293,35.786786 7.54630782,42.7800986 C14.982117,48.4897396 25.5176329,47.5837054 33.4161825,41.2887634 L33.4081917,41.272505 L29.6307192,38.258057 C23.7778163,42.0876401 16.516352,42.3632933 11.2627595,38.3297416 C4.26789761,32.9578311 3.49569507,22.0019124 9.53747165,13.8564732 C15.5814275,5.71103397 26.1518124,3.46294596 33.1474008,8.83411744 L33.1474008,8.83411744 Z" id="Shape"></path>
      <path d="M119.007159,24.5574706 C119.958623,23.5722614 121.102443,22.7884891 122.437145,22.205421 C123.771847,21.622353 125.248052,21.3300865 126.867972,21.3300865 C128.283007,21.3300865 129.569804,21.5417783 130.721731,21.9636968 C131.875132,22.3856154 132.956307,22.9196061 133.968941,23.562739 L135,22.053794 C133.867235,21.3300865 132.623184,20.737496 131.267846,20.2745575 C129.911771,19.8130841 128.445883,19.5808824 126.867235,19.5808824 C125.006317,19.5808824 123.286166,19.9229587 121.708254,20.6071114 C120.129606,21.2912641 118.764687,22.225931 117.61055,23.412577 C116.458623,24.599223 115.56833,25.9865733 114.939672,27.5738955 C114.312487,29.1626826 114,30.8613444 114,32.6720783 C114,34.4820797 114.322805,36.169754 114.971362,37.7387637 C115.618446,39.3077735 116.508739,40.6753464 117.641503,41.8414824 C118.773531,43.008351 120.129606,43.9217754 121.708254,44.5854182 C123.286166,45.2497935 125.006317,45.5808824 126.867235,45.5808824 C128.445883,45.5808824 129.911771,45.3486806 131.267846,44.8872072 C132.623921,44.4257337 133.867235,43.8316782 135,43.1072382 L133.968941,41.5990258 C132.956307,42.2428911 131.875132,42.7746843 130.721731,43.1973354 C129.569804,43.619254 128.28227,43.8309457 126.867972,43.8309457 C125.248789,43.8309457 123.771847,43.5401442 122.437145,42.9570762 C121.101706,42.3740081 119.958623,41.5689934 119.007159,40.5434968 C118.05717,39.5187328 117.318699,38.3115768 116.79322,36.9242265 C116.267004,35.5368762 116.004633,34.0594286 116.004633,32.4904189 C116.004633,30.9221417 116.267004,29.4542166 116.79322,28.0873762 C117.318699,26.7205358 118.05717,25.5434123 119.007159,24.5574706 L119.007159,24.5574706 Z" id="Shape"></path>
      <path d="M174.726352,21.6408203 C174.017079,20.9243202 173.209113,20.4011258 172.300243,20.0727299 C171.3899,19.7450803 170.428736,19.5808824 169.418226,19.5808824 C167.315451,19.5808824 165.354089,20.1555752 163.535612,21.3019755 C161.715662,22.4498685 160.19916,23.8022625 158.986106,25.3584113 C158.541245,23.3917676 157.671411,21.9378694 156.378075,20.9944775 C155.083267,20.0525783 153.587388,19.5808824 151.889701,19.5808824 C150.836472,19.5808824 149.826698,19.7346313 148.856696,20.0421293 C147.885958,20.3496273 146.985926,20.7489269 146.157337,21.2400281 C145.328012,21.7318756 144.54877,22.2953731 143.822558,22.9305207 C143.094136,23.5664146 142.445995,24.2112647 141.880345,24.8665638 L141.880345,20.0719835 L140,20.0719835 L140,45.580136 L141.94074,45.580136 L141.94074,26.9571024 C143.315093,25.4009535 144.802134,24.0888626 146.40039,23.0230686 C147.996437,21.9587673 149.725058,21.4251239 151.58478,21.4251239 C155.548013,21.4251239 157.529998,23.7604667 157.529998,28.4318985 L157.529998,45.5808824 L159.470738,45.5808824 L159.470738,27.2646003 C160.76481,25.5032041 162.240803,24.0888626 163.897982,23.0223222 C165.555896,21.9580209 167.294828,21.4243776 169.114778,21.4243776 C173.077275,21.4243776 175.05926,23.7597203 175.05926,28.4311522 L175.05926,45.580136 L177,45.580136 L177,28.247549 C177,26.7324497 176.797456,25.4308077 176.393841,24.3448621 C175.98949,23.2596629 175.433414,22.3573205 174.726352,21.6408203 L174.726352,21.6408203 Z" id="Shape"></path>
      <path d="M197.055112,35.2652589 C196.424948,34.4207607 195.628461,33.7278765 194.6635,33.1844093 C193.698539,32.6424069 192.664755,32.1685211 191.563581,31.7664139 C190.46169,31.3643068 189.427906,30.9226481 188.465095,30.4392406 C187.500134,29.9565655 186.70293,29.3640251 186.073483,28.6601544 C185.443319,27.9570162 185.128596,27.0011877 185.128596,25.7941338 C185.128596,24.6295612 185.591003,23.573389 186.517251,22.6278146 C187.441348,21.683705 188.849359,21.2105516 190.738417,21.2105516 C191.879738,21.2105516 192.932879,21.3907308 193.897123,21.7532864 C194.862084,22.1151096 195.874362,22.6988608 196.936822,23.5030752 L197.822923,21.9942578 C196.721032,21.1907759 195.589748,20.5879813 194.428354,20.1844093 C193.268393,19.7830346 192.036025,19.5808824 190.738417,19.5808824 C189.558383,19.5808824 188.514562,19.7625264 187.609105,20.1243496 C186.703647,20.4861728 185.935837,20.9688479 185.307106,21.5723748 C184.676942,22.1759018 184.194462,22.8599967 183.859665,23.623927 C183.524868,24.3878574 183.358545,25.1715635 183.358545,25.9750454 C183.358545,27.3827867 183.672551,28.5078078 184.303432,29.3530385 C184.932879,30.1968044 185.730083,30.9014075 186.694327,31.463918 C187.659288,32.0278935 188.690922,32.5105685 189.79353,32.9119433 C190.893987,33.3155153 191.928488,33.7674281 192.892732,34.2698789 C193.857693,34.7737946 194.65418,35.3765892 195.283628,36.0797274 C195.913075,36.783598 196.228515,37.7394265 196.228515,38.9450155 C196.228515,40.3527568 195.697285,41.5385701 194.634107,42.5031878 C193.571646,43.468538 192.154315,43.9519455 190.38283,43.9519455 C188.965499,43.9519455 187.647101,43.690466 186.42692,43.1682394 C185.206739,42.6460128 184.025271,41.9816937 182.885384,41.1767469 L182,42.6247721 C183.258894,43.5102868 184.577292,44.2229467 185.954476,44.7664139 C187.333094,45.3084163 188.807778,45.5808824 190.383547,45.5808824 C191.563581,45.5808824 192.616722,45.3882518 193.54297,45.0066528 C194.46635,44.6257863 195.263554,44.1233354 195.933148,43.4985679 C196.602025,42.8759976 197.113182,42.1420971 197.468053,41.2975988 C197.822923,40.4538329 198,39.5690507 198,38.6432521 C197.999283,37.2362432 197.683843,36.1097572 197.055112,35.2652589 L197.055112,35.2652589 Z" id="Shape"></path>
    </g>
  </g>
</svg>
