<?xml version="1.0" encoding="UTF-8"?>
<svg xmlns="http://www.w3.org/2000/svg" id="Layer_1" data-name="Layer 1" viewBox="0 0 314 89">
  <title>digital-ocean-svg</title>
  <g>
    <g>
      <path d="M23.46,46.88V37.79A14.43,14.43,0,0,0,36.87,18.13,13.77,13.77,0,0,0,28.75,10,14.43,14.43,0,0,0,9.09,23.41h0L0,23.46A23.55,23.55,0,0,1,30.93,1.16,22.57,22.57,0,0,1,45.72,16,23.53,23.53,0,0,1,23.46,46.88Z" fill="#fff"></path>
      <polygon points="23.46 37.84 14.42 37.84 14.42 28.79 14.42 28.79 23.46 28.79 23.46 28.79 23.46 37.84" fill="#fff" fill-rule="evenodd"></polygon>
      <polygon points="14.42 44.79 7.47 44.79 7.47 44.79 7.47 37.84 14.42 37.84 14.42 44.79" fill="#fff" fill-rule="evenodd"></polygon>
      <polygon points="7.47 37.84 1.62 37.84 1.62 37.84 1.62 31.99 1.62 31.99 7.47 31.99 7.47 31.99 7.47 37.84" fill="#fff" fill-rule="evenodd"></polygon>
    </g>
    <g>
      <path d="M83.47,13.54a17.12,17.12,0,0,0-9.93-2.83H65.06V37.65h8.48a16.22,16.22,0,0,0,9.93-3,10,10,0,0,0,3.43-4.31A15.81,15.81,0,0,0,88.11,24a15.74,15.74,0,0,0-1.21-6.31A9.87,9.87,0,0,0,83.47,13.54ZM70,15.3h2.69A14,14,0,0,1,80,17c2,1.25,3.11,3.61,3.11,7S82,30,80,31.34h0a13.13,13.13,0,0,1-7.23,1.77H70Z" fill="#fff"></path>
      <path d="M94,10.43a2.94,2.94,0,0,0-3,2.88A2.69,2.69,0,0,0,92,15.39a2.88,2.88,0,0,0,2.09.88,2.68,2.68,0,0,0,2.09-.88A3,3,0,0,0,97,13.31a2.54,2.54,0,0,0-.88-2A2.91,2.91,0,0,0,94,10.43Z" fill="#fff"></path>
      <rect x="91.58" y="18.73" width="4.78" height="19.01" fill="#fff"></rect>
      <path d="M113.75,20.31a7.13,7.13,0,0,0-4.78-2A8.76,8.76,0,0,0,102.43,21a9.43,9.43,0,0,0-2.55,6.81,9.67,9.67,0,0,0,2.55,6.82A8.8,8.8,0,0,0,109,37.28a7.42,7.42,0,0,0,4.73-1.53v.42a5.11,5.11,0,0,1-1.25,3.66A4.66,4.66,0,0,1,109,41.08c-2.23,0-3.57-.88-5.29-3.15L100.49,41l.09.13a11.47,11.47,0,0,0,3.2,2.88,9.59,9.59,0,0,0,5.33,1.39,9.15,9.15,0,0,0,6.82-2.6,9.35,9.35,0,0,0,2.55-6.91V18.73H113.8v1.58ZM112.5,31.53a4.18,4.18,0,0,1-3.3,1.39A4,4,0,0,1,106,31.53a5.34,5.34,0,0,1-1.25-3.71A5.47,5.47,0,0,1,106,24.06a4.19,4.19,0,0,1,3.24-1.43,4.08,4.08,0,0,1,3.3,1.43,5.52,5.52,0,0,1,1.25,3.76A5.64,5.64,0,0,1,112.5,31.53Z" fill="#fff"></path>
      <rect x="122.51" y="18.73" width="4.78" height="19.01" fill="#fff"></rect>
      <path d="M125,10.43a2.94,2.94,0,0,0-3,2.88,2.69,2.69,0,0,0,.88,2.08,2.88,2.88,0,0,0,2.09.88,2.68,2.68,0,0,0,2.09-.88,3,3,0,0,0,.88-2.08,2.54,2.54,0,0,0-.88-2A2.91,2.91,0,0,0,125,10.43Z" fill="#fff"></path>
      <path d="M137.77,13.58h-4.68v5.15h-2.74v4.36h2.74V31c0,2.46.51,4.22,1.48,5.24s2.69,1.53,5.15,1.53c.78,0,1.57,0,2.32-.09h.23V33.29l-1.63.09a3,3,0,0,1-2.27-.6,4,4,0,0,1-.55-2.5V23.09h4.45V18.73h-4.45V13.58Z" fill="#fff"></path>
      <rect x="164.62" y="10.76" width="4.78" height="26.94" fill="#fff"></rect>
      <path d="M217.67,30.93a11.45,11.45,0,0,1-2.41,2.22h0a4.5,4.5,0,0,1-2.46.65,4.42,4.42,0,0,1-3.48-1.57,5.94,5.94,0,0,1-1.39-4,5.94,5.94,0,0,1,1.34-4,4.32,4.32,0,0,1,3.43-1.57,6.39,6.39,0,0,1,4.55,2.59l3.15-3h0a9.37,9.37,0,0,0-7.83-3.94,9.24,9.24,0,0,0-6.77,2.83A9.65,9.65,0,0,0,203,28.19a9.77,9.77,0,0,0,2.79,7.1,9.08,9.08,0,0,0,6.77,2.82,9.36,9.36,0,0,0,8.11-4.22Z" fill="#fff"></path>
      <path d="M237.28,21.37a7.8,7.8,0,0,0-2.73-2.27,9.06,9.06,0,0,0-4-.83,8,8,0,0,0-6.49,2.92,11,11,0,0,0-2.41,7.14,9.88,9.88,0,0,0,2.64,7.09,9.19,9.19,0,0,0,6.91,2.74,9.42,9.42,0,0,0,7.84-3.89l.09-.14-3.1-3h0A13.74,13.74,0,0,1,235,32.23a5.6,5.6,0,0,1-1.39,1,5.14,5.14,0,0,1-2.41.51A4.54,4.54,0,0,1,228,32.6a4.11,4.11,0,0,1-1.34-2.88h12.66l0-1.76a12.34,12.34,0,0,0-.51-3.53A9.88,9.88,0,0,0,237.28,21.37Zm-10.43,4.46a4.8,4.8,0,0,1,1.25-2.28,3.38,3.38,0,0,1,2.5-1,3.45,3.45,0,0,1,2.65,1,3.82,3.82,0,0,1,1,2.23h-7.37Z" fill="#fff"></path>
      <path d="M255.64,20.12h0a8.74,8.74,0,0,0-5.93-1.85,10.1,10.1,0,0,0-4.41,1,7.91,7.91,0,0,0-3.24,3.06l0,0,3.06,2.93a4.89,4.89,0,0,1,4.5-2.69,3.81,3.81,0,0,1,2.46.78,2.45,2.45,0,0,1,.93,2v.93a12,12,0,0,0-3.53-.55,9.18,9.18,0,0,0-5.75,1.67,5.72,5.72,0,0,0-2.18,4.73,5.43,5.43,0,0,0,1.86,4.31A7.05,7.05,0,0,0,248,38.11a8,8,0,0,0,5.05-2V37.7h4.69V25.5A6.33,6.33,0,0,0,255.64,20.12Zm-8.48,10.34a4,4,0,0,1,2.27-.55,10.47,10.47,0,0,1,3.62.69v1.86a5.75,5.75,0,0,1-4.13,1.43,2.83,2.83,0,0,1-1.9-.55,1.81,1.81,0,0,1,.14-2.88Z" fill="#fff"></path>
      <path d="M276.23,20.49a7.13,7.13,0,0,0-5.56-2.22,6.51,6.51,0,0,0-4.59,1.62V18.73h-4.69v19h4.78V27.22a5,5,0,0,1,1-3.39,3.4,3.4,0,0,1,2.83-1.2,3.15,3.15,0,0,1,2.5,1.06,4.51,4.51,0,0,1,.93,3v11h4.78V26.71A8.93,8.93,0,0,0,276.23,20.49Z" fill="#fff"></path>
      <path d="M158.64,20.12h0a8.79,8.79,0,0,0-5.94-1.85,10,10,0,0,0-4.4,1,7.87,7.87,0,0,0-3.25,3.06l0,0,3.06,2.93a4.87,4.87,0,0,1,4.49-2.69,3.81,3.81,0,0,1,2.46.78,2.45,2.45,0,0,1,.93,2v.93a11.93,11.93,0,0,0-3.52-.55,9.14,9.14,0,0,0-5.75,1.67,5.69,5.69,0,0,0-2.18,4.73,5.43,5.43,0,0,0,1.85,4.31A7.05,7.05,0,0,0,151,38.11a8,8,0,0,0,5.06-2V37.7h4.68V25.5A6.62,6.62,0,0,0,158.64,20.12Zm-8.49,10.34a4,4,0,0,1,2.27-.55,10.47,10.47,0,0,1,3.62.69v1.86a5.75,5.75,0,0,1-4.13,1.43,2.83,2.83,0,0,1-1.9-.55,1.73,1.73,0,0,1-.65-1.39A1.63,1.63,0,0,1,150.15,30.46Z" fill="#fff"></path>
      <path d="M186.74,38.11A13.91,13.91,0,1,1,200.65,24.2,13.92,13.92,0,0,1,186.74,38.11Zm0-22.9a9,9,0,1,0,9,9A9,9,0,0,0,186.74,15.21Z" fill="#fff"></path>
    </g>
  </g>
</svg>
