<svg id="bluegg-logo" xmlns="http://www.w3.org/2000/svg" viewBox="0 0 3457.45 1242.98"><rect x="696.54" y="56.99" width="106.36" height="867.14"/><path d="M1353.91,318.77V622.71l-207,207c-92.84-10.4-165.26-89.39-165.26-185v-326H875.31v326c0,161.27,131.2,292.48,292.48,292.48h22l164.09-164.09v151.1h106.36V318.77Z"/><path d="M1844.34,840.56a212.08,212.08,0,0,1-96.2-18.74L2111,458.92l-31.73-37.36A318.7,318.7,0,0,0,1836,308.91c-175.93,0-319.07,143.13-319.07,319.07v0c0,87.52,34.73,169.16,97.8,229.88,60,57.79,138.12,89.19,221.1,89.19,4.16,0,8.36-.08,12.55-.24,110.89-4.21,207.82-66,261.69-156.12L2031.33,712C1999.64,785.11,1927.93,837.39,1844.34,840.56ZM1623.29,628v0c0-117.29,95.42-212.71,212.71-212.71A212.37,212.37,0,0,1,1962.56,457L1665,754.54A210.66,210.66,0,0,1,1623.29,628Z"/><path d="M548.94,394.46a317.69,317.69,0,0,0-120.55-78.7L594.1,150l-31.72-37.36A318.66,318.66,0,0,0,319.07,0C143.13,0,0,143.13,0,319.07v605.1H106.36v-70.7A316.08,316.08,0,0,0,318.9,934.81c4.17,0,8.36-.08,12.55-.24C497,928.28,631.61,793.67,637.9,628.11,641.22,540.48,609.63,457.5,548.94,394.46Zm-442.59-75.4c0-117.29,95.42-212.71,212.71-212.71a212.39,212.39,0,0,1,126.55,41.73L106.36,487.35Zm425.26,305c-4.19,110.32-93.89,200-204.21,204.21a212.77,212.77,0,0,1-220-191.43L340.13,404a212.77,212.77,0,0,1,191.48,220Z"/><path d="M2219.22,848.52a317.69,317.69,0,0,0,120.55,78.7L2174.06,1093l31.72,37.36A318.66,318.66,0,0,0,2449.09,1243c175.93,0,319.07-143.13,319.07-319.07V318.81H2661.8v70.7a316.08,316.08,0,0,0-212.55-81.33c-4.17,0-8.36.08-12.55.24-165.55,6.29-300.16,140.9-306.45,306.46C2126.93,702.5,2158.52,785.48,2219.22,848.52Zm442.59,75.4c0,117.29-95.42,212.71-212.71,212.71a212.39,212.39,0,0,1-126.55-41.73L2661.8,755.63Zm-425.26-305c4.19-110.32,93.89-200,204.21-204.21a212.77,212.77,0,0,1,220,191.43L2428,838.94a212.77,212.77,0,0,1-191.48-220Z"/><path d="M2908.51,848.52a317.69,317.69,0,0,0,120.55,78.7L2863.35,1093l31.72,37.36A318.66,318.66,0,0,0,3138.38,1243c175.93,0,319.07-143.13,319.07-319.07V318.81H3351.09v70.7a316.08,316.08,0,0,0-212.55-81.33c-4.17,0-8.36.08-12.55.24-165.55,6.29-300.16,140.9-306.45,306.46C2816.23,702.5,2847.82,785.48,2908.51,848.52Zm442.59,75.4c0,117.29-95.42,212.71-212.71,212.71a212.39,212.39,0,0,1-126.55-41.73l339.26-339.27Zm-425.26-305c4.19-110.32,93.89-200,204.21-204.21a212.77,212.77,0,0,1,220,191.43L3117.32,838.94a212.77,212.77,0,0,1-191.48-220Z"/></svg>