<?xml version="1.0" encoding="UTF-8"?>
<!-- Generator: Adobe Illustrator 23.0.6, SVG Export Plug-In . SVG Version: 6.00 Build 0)  -->
<svg xmlns="http://www.w3.org/2000/svg" xmlns:xlink="http://www.w3.org/1999/xlink" id="Layer_1" x="0px" y="0px" viewBox="0 0 314 89" style="enable-background:new 0 0 314 89;" xml:space="preserve">
<style type="text/css">
	.st0{fill:#FFFFFF;}
</style>
<title>craft-commerce-logo</title>
<desc>Created with Sketch.</desc>
<g>
	<g>
		<path id="s_5_" class="st0" d="M67.1,30.8c-1.7-0.9-2.5-1.7-2.5-2.7c0-1.4,1.2-2.2,3-2.2c2.2,0,4.1,0.9,4.1,0.9l1.5-4.7    c0,0-1.4-1.1-5.5-1.1C62,21,58,24.3,58,29c0,2.6,1.9,4.6,4.4,6.1c2,1.1,2.7,2,2.7,3.1c0,1.3-1,2.3-2.9,2.3c-2.8,0-5.4-1.4-5.4-1.4    l-1.6,4.7c0,0,2.4,1.6,6.5,1.6c5.9,0,10.1-2.9,10.1-8.1C71.9,34.2,69.7,32.2,67.1,30.8z"></path>
		<path id="h_5_" class="st0" d="M90.7,21c-2.9,0-5.2,1.4-7,3.5l-0.1,0l2.5-13.2h-6.6l-6.4,33.7h6.6l2.2-11.5c0.9-4.4,3.1-7,5.2-7    c1.5,0,2,1,2,2.4c0,0.9-0.1,2-0.3,2.9l-2.5,13.2h6.6l2.6-13.6c0.3-1.4,0.5-3.1,0.5-4.3C96.1,23.2,94.2,21,90.7,21z"></path>
		<path id="o_5_" class="st0" d="M111,21c-7.9,0-13.2,7.1-13.2,15.1c0,5.1,3.1,9.2,9.1,9.2c7.8,0,13-7,13-15.1    C119.9,25.4,117.2,21,111,21z M107.7,40.2c-2.3,0-3.2-1.9-3.2-4.3c0-3.8,2-9.9,5.5-9.9c2.4,0,3.1,2,3.1,4    C113.2,34,111.2,40.2,107.7,40.2z"></path>
		<path id="p_5_" class="st0" d="M136.8,21c-4.4,0-7,3.9-7,3.9h-0.1l0.4-3.5h-5.8c-0.3,2.4-0.8,6-1.4,8.8l-4.6,24h6.6l1.8-9.8h0.1    c0,0,1.4,0.9,3.9,0.9c7.8,0,12.8-7.9,12.8-15.9C143.5,24.9,141.6,21,136.8,21z M130.5,40.3c-1.7,0-2.7-1-2.7-1l1.1-6.1    c0.8-4.1,2.9-6.8,5.2-6.8c2,0,2.6,1.9,2.6,3.6C136.7,34.2,134.1,40.3,130.5,40.3z"></path>
		<path id="dot_5_" class="st0" d="M153,11.5c-2.1,0-3.8,1.7-3.8,3.8c0,2,1.2,3.3,3.1,3.3h0.1c2,0,3.8-1.4,3.9-3.8    C156.3,12.9,155,11.5,153,11.5z"></path>
		<polygon id="i_5_" class="st0" points="143.7,44.8 150.3,44.8 154.8,21.5 148.2,21.5   "></polygon>
		<path id="f_5_" class="st0" d="M171.5,21.4H167l0.2-1.1c0.4-2.3,1.7-4.3,3.9-4.3c1.2,0,2.1,0.3,2.1,0.3l1.3-5.1    c0,0-1.1-0.6-3.6-0.6c-2.4,0-4.7,0.7-6.4,2.2c-2.3,1.9-3.3,4.7-3.8,7.4l-0.2,1.1h-3l-1,5h3L156,44.8h6.6l3.5-18.4h4.5L171.5,21.4z    "></path>
		<path id="y_5_" class="st0" d="M187.4,21.5c0,0-4.1,10.4-6,16h-0.1c-0.1-1.8-1.6-16-1.6-16h-6.9l4,21.4c0.1,0.5,0,0.8-0.1,1.1    c-0.8,1.5-2,2.9-3.6,4c-1.2,0.9-2.6,1.5-3.7,1.9l1.8,5.6c1.4-0.3,4.1-1.4,6.4-3.6c3-2.8,5.8-7.1,8.6-13.1l8.1-17.3    C194.3,21.5,187.4,21.5,187.4,21.5z"></path>
	</g>
	<g>
		<path class="st0" d="M32.4,6.3c0,0-0.6,0.2-1.6,0.5c-0.2-0.6-0.4-1.2-0.8-1.9c-1.1-2.2-2.8-3.4-4.8-3.4l0,0c-0.1,0-0.3,0-0.4,0    c0-0.1-0.1-0.1-0.2-0.2c-0.9-1-2-1.4-3.4-1.4c-2.6,0.1-5.2,2-7.3,5.3c-1.5,2.4-2.6,5.3-2.9,7.6c-3,0.9-5.1,1.6-5.1,1.6    c-1.5,0.5-1.6,0.5-1.7,2C4,17.6,0,48.3,0,48.3L32.9,54V6.3C32.7,6.3,32.5,6.3,32.4,6.3z M24.8,8.7c-1.7,0.5-3.7,1.1-5.5,1.7    c0.5-2,1.6-4.1,2.8-5.4c0.5-0.5,1.1-1,1.9-1.4C24.7,5.1,24.9,7.2,24.8,8.7z M21.3,1.8c0.6,0,1.1,0.1,1.6,0.4    c-0.7,0.3-1.4,0.9-2,1.6c-1.7,1.8-2.9,4.6-3.4,7.2c-1.6,0.5-3.1,1-4.6,1.4C13.7,8.2,17.2,1.9,21.3,1.8z M16.2,25.7    c0.2,2.8,7.5,3.4,8,10c0.3,5.2-2.7,8.7-7.1,9c-5.3,0.3-8.2-2.8-8.2-2.8l1.1-4.8c0,0,2.9,2.2,5.3,2c1.5-0.1,2.1-1.4,2-2.2    c-0.2-3.7-6.2-3.4-6.6-9.5c-0.3-5.1,3-10.1,10.3-10.6c2.8-0.2,4.3,0.5,4.3,0.5l-1.7,6.3c0,0-1.9-0.9-4.1-0.7    C16.2,23.2,16.2,25.2,16.2,25.7z M26.6,8.1c0-1.3-0.2-3.2-0.8-4.7c2,0.4,3,2.6,3.4,4C28.4,7.6,27.5,7.8,26.6,8.1z"></path>
		<path class="st0" d="M33.9,53.9l13.7-3.4c0,0-5.9-39.8-5.9-40c0-0.3-0.3-0.4-0.5-0.4c-0.2,0-4.1-0.1-4.1-0.1s-2.4-2.3-3.2-3.1    V53.9z"></path>
	</g>
</g>
</svg>
